<?xml version="1.0" encoding="iso-8859-1"?>
<!-- Generator: Adobe Illustrator 19.0.0, SVG Export Plug-In . SVG Version: 6.00 Build 0)  -->
<svg version="1.1" id="Layer_1" xmlns="http://www.w3.org/2000/svg" xmlns:xlink="http://www.w3.org/1999/xlink" x="0px" y="0px"
	 viewBox="0 0 512.004 512.004" style="enable-background:new 0 0 512.004 512.004;" xml:space="preserve">
<g>
	<path style="fill:#FFC61B;" d="M256,161.84c-7.79,0-14.105-6.315-14.105-14.105v-32.428c0-7.79,6.315-14.105,14.105-14.105
		s14.105,6.315,14.105,14.105v32.428C270.105,155.525,263.79,161.84,256,161.84z"/>
	<path style="fill:#FFC61B;" d="M345.565,156.057c-3.611,0-7.219-1.377-9.973-4.131l-27.919-27.92
		c-5.508-5.508-5.508-14.439,0-19.947c5.508-5.506,14.438-5.508,19.947,0l27.919,27.92c5.508,5.508,5.508,14.439,0,19.947
		C352.785,154.68,349.174,156.057,345.565,156.057z"/>
	<path style="fill:#FFC61B;" d="M166.435,156.057c-3.609,0-7.219-1.377-9.973-4.131c-5.508-5.508-5.509-14.439,0-19.947
		l27.919-27.92c5.508-5.508,14.439-5.509,19.947,0c5.508,5.509,5.509,14.439,0,19.947l-27.919,27.92
		C173.655,154.68,170.045,156.057,166.435,156.057z"/>
</g>
<g>
	<path style="fill:#FEE187;" d="M483.365,311.431H28.635c-8.026,0-14.531-6.505-14.531-14.531v-32.157
		c0-8.026,6.505-14.531,14.531-14.531h454.729c8.026,0,14.531,6.505,14.531,14.531v32.157
		C497.895,304.926,491.39,311.431,483.365,311.431z"/>
	<polygon style="fill:#FEE187;" points="418.249,311.431 314.776,410.202 211.304,311.431 	"/>
</g>
<path style="fill:#FFC61B;" d="M493.866,238.129c0.13-6.064,0.08-12.158-0.489-17.264c-4.78-49.371-28.903-95.05-67.937-128.629
	c-39.073-33.614-89.781-52.127-142.782-52.127h-56.333c-101.816,0-189.285,68.212-207.981,162.194
	c-1.52,7.641,3.442,15.065,11.081,16.586c7.639,1.525,15.067-3.442,16.586-11.081C62.09,126.983,137.924,68.32,226.325,68.32h56.333
	c95.609,0,174.131,66.791,182.649,155.363c0.007,0.08,0.016,0.159,0.025,0.24c0.377,3.323,0.427,7.852,0.361,12.186H28.635
	C12.845,236.108,0,248.953,0,264.743v32.157c0,11.337,6.64,21.129,16.22,25.765v51.043c0,54.139,44.046,98.186,98.186,98.186
	h283.188c54.139,0,98.186-44.046,98.186-98.186c0-7.79-6.315-14.105-14.105-14.105c-7.79,0-14.105,6.315-14.105,14.105
	c0,38.585-31.391,69.976-69.976,69.976H114.406c-38.585,0-69.976-31.391-69.976-69.976v-48.172h43.67l61.571,58.773
	c2.725,2.602,6.231,3.903,9.739,3.903c3.506,0,7.014-1.3,9.739-3.903l24.796-23.668c5.635-5.378,5.842-14.306,0.464-19.941
	c-5.378-5.635-14.306-5.844-19.941-0.464l-15.057,14.371l-30.456-29.071h76.698l99.386,94.868c2.725,2.601,6.231,3.903,9.739,3.903
	c3.508,0,7.014-1.3,9.739-3.903l99.386-94.868h59.465c15.789,0,28.635-12.845,28.635-28.635v-32.157
	C512,252.663,504.47,242.328,493.866,238.129z M314.776,390.703l-68.269-65.166h136.539L314.776,390.703z M483.791,296.901
	c0,0.236-0.19,0.426-0.426,0.426h-65.116H211.304H28.635c-0.236,0-0.426-0.192-0.426-0.426v-32.157c0-0.236,0.19-0.426,0.426-0.426
	h454.729c0.236,0,0.426,0.192,0.426,0.426V296.901z"/>
<g>
</g>
<g>
</g>
<g>
</g>
<g>
</g>
<g>
</g>
<g>
</g>
<g>
</g>
<g>
</g>
<g>
</g>
<g>
</g>
<g>
</g>
<g>
</g>
<g>
</g>
<g>
</g>
<g>
</g>
</svg>
